PathFileType	4	(X/Y/Z)	C:\Git\research_data\torsion_deformities_healthy_kinematics\simulations\P03\pre\Static01\markers_HJC.trc
DataRate	CameraRate	NumFrames	NumMarkers	Units	OrigDataRate	OrigDataStartFrame	OrigNumFrames
150	150	6	38	mm	150	132	150
Frame#	Time	C7			T10			CLAV			STRN			RBAK			SACR			LASI			RASI			LT1			LT2			LT3			LS1			LS2			LS3			LHEE			LTOE			RT1			RT2			RT3			RS1			RS2			RS3			RHEE			RTOE			LKNE			LKNM			LANK			LANM			RKNM			RKNE			RANM			RANK			LKJC			RKJC			LAJC			RAJC			LHJC			RHJC		
		X1	Y1	Z1	X2	Y2	Z2	X3	Y3	Z3	X4	Y4	Z4	X5	Y5	Z5	X6	Y6	Z6	X7	Y7	Z7	X8	Y8	Z8	X9	Y9	Z9	X10	Y10	Z10	X11	Y11	Z11	X12	Y12	Z12	X13	Y13	Z13	X14	Y14	Z14	X15	Y15	Z15	X16	Y16	Z16	X17	Y17	Z17	X18	Y18	Z18	X19	Y19	Z19	X20	Y20	Z20	X21	Y21	Z21	X22	Y22	Z22	X23	Y23	Z23	X24	Y24	Z24	X25	Y25	Z25	X26	Y26	Z26	X27	Y27	Z27	X28	Y28	Z28	X29	Y29	Z29	X30	Y30	Z30	X31	Y31	Z31	X32	Y32	Z32	X33	Y33	Z33	X34	Y34	Z34	X35	Y35	Z35	X36	Y36	Z36	X37	Y37	Z37	X38	Y38	Z38	

132	0.873333	445.881500	1273.034058	-965.837036	441.934998	1093.662231	-914.818970	432.973206	1210.126709	-1096.023438	428.213623	1156.920776	-1128.288452	541.091003	1173.951172	-930.976013	428.205841	874.446777	-916.931641	277.985931	870.923401	-1074.062256	521.437073	876.145813	-1124.228882	242.923813	585.763123	-1129.687500	230.470490	474.124481	-1080.788086	276.712891	531.231567	-1204.289917	282.442200	217.001495	-1033.876099	342.309357	148.709732	-950.802795	254.302963	131.462219	-1062.625366	368.015289	41.880650	-973.885803	262.352051	41.351543	-1083.230469	591.838196	605.385376	-1134.415283	584.278442	506.635193	-1058.829468	582.593323	532.876831	-1200.246216	586.799377	265.811035	-1092.090698	562.111572	217.414474	-983.938782	581.792175	175.285507	-1118.736206	499.799286	45.012047	-981.867554	570.035278	41.998852	-1123.544067	267.894257	432.359924	-1148.925537	367.449707	421.315247	-1164.256836	304.911591	49.726101	-994.324036	356.997589	47.025425	-1045.003662	465.591309	422.706848	-1168.968262	568.222168	438.341339	-1168.820190	490.107269	52.554356	-1062.745361	551.965759	47.903950	-1019.134399	317.671997	426.837585	-1156.591187	516.906738	430.524078	-1168.894165	330.954590	48.375763	-1019.663818	521.036499	50.229153	-1040.939941	325.010610	786.514766	-1027.931649	499.984767	790.268238	-1063.987603	
133	0.880000	445.826904	1272.995728	-965.765686	441.891968	1093.600586	-914.835754	432.942139	1210.215088	-1095.947266	428.189270	1157.049561	-1128.282959	541.052673	1173.901489	-930.938965	428.200806	874.413391	-917.029236	278.035339	870.947144	-1074.220337	521.513550	876.140320	-1124.291260	242.956329	585.772400	-1129.817871	230.443665	474.138580	-1080.908447	276.774109	531.215820	-1204.385376	282.449097	217.003555	-1033.899536	342.321747	148.725876	-950.814270	254.299011	131.459427	-1062.631104	368.015442	41.886257	-973.894775	262.344269	41.349857	-1083.234741	591.809326	605.372925	-1134.494263	584.212646	506.633484	-1058.897583	582.563538	532.848083	-1200.317261	586.764526	265.800629	-1092.150146	562.098328	217.417679	-983.982910	581.754822	175.282028	-1118.772949	499.794525	45.014961	-981.872314	570.026917	41.991180	-1123.547974	267.908997	432.339600	-1149.002075	367.484314	421.296631	-1164.311523	304.909637	49.729752	-994.332275	356.994812	47.023830	-1045.006226	465.538483	422.703857	-1169.016968	568.162354	438.318726	-1168.886841	490.094574	52.542686	-1062.745239	551.958862	47.906754	-1019.145264	317.696655	426.818115	-1156.656738	516.850403	430.511292	-1168.951904	330.952240	48.376793	-1019.669312	521.026733	50.224720	-1040.945312	325.029263	786.519263	-1028.088583	500.022495	790.251714	-1064.075674	
134	0.886667	445.772705	1272.960083	-965.696106	441.857635	1093.540649	-914.849182	432.903809	1210.294189	-1095.879883	428.160492	1157.166504	-1128.274048	541.020020	1173.851807	-930.910156	428.209869	874.379883	-917.134949	278.079651	870.957214	-1074.375366	521.574646	876.139832	-1124.362427	242.986649	585.780884	-1129.956909	230.420822	474.151154	-1081.032349	276.838013	531.200317	-1204.493774	282.453857	217.002136	-1033.925415	342.332306	148.742050	-950.827026	254.297211	131.450272	-1062.643555	368.014343	41.891712	-973.901367	262.337158	41.345860	-1083.237915	591.788086	605.365967	-1134.562622	584.149841	506.639832	-1058.955200	582.544556	532.822693	-1200.370239	586.733215	265.793457	-1092.208008	562.083191	217.420670	-984.015442	581.727539	175.281296	-1118.801514	499.791077	45.018074	-981.876282	570.023071	41.981140	-1123.547852	267.920837	432.315247	-1149.088013	367.516296	421.271240	-1164.362305	304.911072	49.730423	-994.338013	356.991821	47.021046	-1045.009888	465.493652	422.701141	-1169.053711	568.113953	438.301422	-1168.941772	490.084808	52.532883	-1062.744751	551.953186	47.908081	-1019.154907	317.718567	426.793243	-1156.725220	516.803772	430.501282	-1168.997803	330.951447	48.375732	-1019.673950	521.018982	50.220482	-1040.949829	325.050700	786.516383	-1028.244357	500.056033	790.241247	-1064.171182	
135	0.893333	445.718048	1272.927490	-965.626709	441.831116	1093.483887	-914.856079	432.861298	1210.362915	-1095.819702	428.130432	1157.268921	-1128.263184	540.989685	1173.805664	-930.884827	428.230927	874.343811	-917.246582	278.117493	870.954956	-1074.522705	521.619995	876.145203	-1124.442261	243.015945	585.787048	-1130.100586	230.405121	474.164642	-1081.159180	276.904419	531.185974	-1204.613525	282.456451	216.998413	-1033.954834	342.341400	148.758072	-950.842590	254.296844	131.436401	-1062.663086	368.012146	41.897648	-973.906067	262.331665	41.339939	-1083.239868	591.773682	605.364136	-1134.620361	584.092224	506.654785	-1059.003174	582.534180	532.803467	-1200.409546	586.706604	265.789703	-1092.261841	562.068420	217.423462	-984.038269	581.710022	175.282440	-1118.822388	499.788940	45.021477	-981.879517	570.023621	41.969643	-1123.544434	267.923279	432.297913	-1149.194214	367.540466	421.242340	-1164.408813	304.915466	49.727409	-994.340759	356.989471	47.017010	-1045.015015	465.457916	422.696014	-1169.078857	568.078003	438.290894	-1168.986450	490.077576	52.525383	-1062.744507	551.949097	47.908291	-1019.163086	317.731873	426.770111	-1156.801514	516.768005	430.493439	-1169.032715	330.952454	48.372208	-1019.677856	521.013306	50.216839	-1040.953735	325.074159	786.505808	-1028.396814	500.085236	790.236163	-1064.275194	
136	0.900000	445.662659	1272.897461	-965.557617	441.811432	1093.432129	-914.854553	432.816254	1210.422485	-1095.763794	428.100281	1157.356323	-1128.252197	540.957092	1173.767944	-930.854431	428.261566	874.303589	-917.361328	278.148132	870.942627	-1074.658081	521.650574	876.156677	-1124.530273	243.045410	585.789551	-1130.246338	230.394531	474.179169	-1081.288452	276.972626	531.173035	-1204.741089	282.457367	216.993774	-1033.988403	342.350220	148.774048	-950.862915	254.296753	131.420547	-1062.688354	368.009705	41.904556	-973.909546	262.328400	41.333107	-1083.241089	591.765564	605.367432	-1134.668945	584.042847	506.678223	-1059.043701	582.532593	532.791260	-1200.442383	586.686218	265.789154	-1092.307617	562.055359	217.425934	-984.052612	581.701233	175.284332	-1118.835693	499.788086	45.025276	-981.882080	570.028076	41.957729	-1123.537964	267.912109	432.296906	-1149.333984	367.557587	421.213837	-1164.455078	304.921661	49.721886	-994.341553	356.988312	47.011726	-1045.021851	465.432587	422.689148	-1169.098145	568.055237	438.287598	-1169.022217	490.072449	52.520527	-1062.744629	551.946960	47.907681	-1019.169189	317.734833	426.755371	-1156.894531	516.743896	430.488373	-1169.060181	330.954987	48.366806	-1019.681702	521.009705	50.214104	-1040.956909	325.099015	786.487954	-1028.543525	500.110570	790.235428	-1064.387970	
137	0.906667	445.606720	1272.868774	-965.489807	441.797791	1093.385864	-914.844116	432.769714	1210.474243	-1095.710693	428.069702	1157.430176	-1128.243652	540.919922	1173.741577	-930.812866	428.299103	874.259277	-917.475830	278.172363	870.922791	-1074.779053	521.668640	876.173706	-1124.625488	243.076126	585.788330	-1130.392090	230.383728	474.193237	-1081.418579	277.041382	531.160889	-1204.871094	282.457886	216.989716	-1034.026733	342.360535	148.790405	-950.889343	254.296463	131.405273	-1062.716431	368.008026	41.912655	-973.912537	262.327484	41.326546	-1083.243164	591.763733	605.375854	-1134.711914	584.006042	506.709015	-1059.078003	582.541077	532.785278	-1200.474976	586.673584	265.791077	-1092.342041	562.044312	217.427780	-984.059509	581.700012	175.285736	-1118.841553	499.788391	45.029613	-981.884216	570.035645	41.946350	-1123.529663	267.889374	432.312073	-1149.508789	367.571808	421.187256	-1164.504028	304.928680	49.716610	-994.341980	356.988831	47.005238	-1045.030396	465.418701	422.683716	-1169.118774	568.046265	438.290405	-1169.050049	490.069305	52.518326	-1062.745605	551.946716	47.906448	-1019.172485	317.730591	426.749664	-1157.006348	516.732483	430.487061	-1169.084473	330.958740	48.360924	-1019.686218	521.007996	50.212387	-1040.958984	325.125476	786.464148	-1028.682305	500.133200	790.238131	-1064.508361	
